<?xml version="1.0" standalone="no"?>
<!DOCTYPE svg PUBLIC "-//W3C//DTD SVG 20010904//EN"
 "http://www.w3.org/TR/2001/REC-SVG-20010904/DTD/svg10.dtd">
<svg version="1.0" xmlns="http://www.w3.org/2000/svg"
 width="512.000000pt" height="512.000000pt" viewBox="0 0 512.000000 512.000000"
 preserveAspectRatio="xMidYMid meet">
<metadata>
Created by potrace 1.11, written by Peter Selinger 2001-2013
</metadata>
<g transform="translate(0.000000,512.000000) scale(0.100000,-0.100000)"
fill="#000000" stroke="none">
<path d="M2420 4055 c-166 -28 -335 -86 -465 -160 -573 -327 -851 -1003 -684
-1665 66 -263 174 -462 348 -644 231 -239 526 -385 861 -426 285 -34 626 31
890 172 100 53 138 83 158 124 14 31 15 39 2 76 -34 94 -109 106 -236 39 -128
-68 -255 -116 -404 -153 -37 -9 -118 -13 -250 -12 -180 1 -203 3 -295 28 -203
55 -375 157 -519 306 -165 171 -261 360 -312 615 -25 125 -25 396 -1 517 86
428 361 755 741 883 119 40 212 56 352 62 230 10 412 -29 622 -133 73 -36 147
-70 164 -75 44 -12 102 5 123 37 21 33 22 107 0 140 -58 89 -387 231 -621 268
-121 19 -365 20 -474 1z"/>
</g>
</svg>
